<svg xmlns="http://www.w3.org/2000/svg" version="1.1" xmlns:xlink="http://www.w3.org/1999/xlink" xmlns:svgjs="http://svgjs.com/svgjs" width="1440" height="560" preserveAspectRatio="none" viewBox="0 0 1440 560"><g mask="url(&quot;#SvgjsMask1099&quot;)" fill="none"><rect width="1440" height="560" x="0" y="0" fill="rgba(192, 226, 255, 1)"></rect><path d="M0,323.056C59.407,321.697,98.664,263.282,146.883,228.555C192.193,195.923,238.877,168.358,274.502,125.361C320.025,70.417,394.715,15.277,381.722,-54.883C368.593,-125.776,275.554,-146.215,216.537,-187.63C172.126,-218.795,128.124,-245.504,78.578,-267.613C21.259,-293.191,-33.619,-333.592,-96.051,-327.118C-162.426,-320.235,-229.386,-286.554,-267.433,-231.732C-304.545,-178.258,-281.555,-106.172,-293.763,-42.237C-306.769,25.88,-373.122,94.242,-341.454,155.937C-309.432,218.322,-214.251,204.547,-151.266,235.374C-97.837,261.524,-59.469,324.416,0,323.056" fill="#a1d4ff"></path><path d="M1440 922.1120000000001C1506.909 922.181 1556.18 864.255 1614.785 831.971 1678.496 796.874 1769.565 790.471 1799.393 724.129 1829.238 657.751 1767.666 586.415 1757.597 514.336 1747.472 441.852 1783.474 358.90700000000004 1740.136 299.93 1696.659 240.764 1611.465 236.454 1540.254 218.56599999999997 1471.74 201.356 1401.373 177.704 1333.656 197.825 1266.026 217.92000000000002 1208.273 267.312 1172.181 327.93399999999997 1138.835 383.94399999999996 1147.104 452.277 1143.4180000000001 517.358 1140.06 576.649 1130.0810000000001 636.359 1151.578 691.718 1173.7930000000001 748.925 1217.498 793.307 1265.4470000000001 831.6089999999999 1317.714 873.36 1373.105 922.043 1440 922.1120000000001" fill="#dff0ff"></path></g><defs><mask id="SvgjsMask1099"><rect width="1440" height="560" fill="#ffffff"></rect></mask></defs></svg>