<svg xmlns="http://www.w3.org/2000/svg" version="1.1" xmlns:xlink="http://www.w3.org/1999/xlink" xmlns:svgjs="http://svgjs.com/svgjs" width="1440" height="560" preserveAspectRatio="none" viewBox="0 0 1440 560"><g mask="url(&quot;#SvgjsMask1007&quot;)" fill="none"><rect width="1440" height="560" x="0" y="0" fill="rgba(126, 193, 249, 1)"></rect><path d="M0,446.71C80.397,429.446,126.018,347.83,198.071,308.205C277.789,264.364,394.205,278.954,443.769,202.662C493.047,126.81,466.944,22.971,439.337,-63.167C414.342,-141.155,353.064,-197.698,296.48,-256.901C242.607,-313.267,194.285,-386.767,117.439,-399.962C41.748,-412.959,-24.288,-353.691,-95.18,-324.154C-157.526,-298.177,-227.851,-286.765,-273.568,-237.048C-319.885,-186.679,-335.258,-117.293,-347.335,-49.939C-359.776,19.443,-357.284,87.945,-344.266,157.221C-327.739,245.171,-329.983,349.294,-261.491,406.888C-192.615,464.805,-87.985,465.603,0,446.71" fill="#369ff6"></path><path d="M1440 1068.25C1536.855 1071.016 1623.871 1023.735 1711.629 982.663 1812.31 935.543 1940.115 910.533 1989.6390000000001 811.012 2039.2150000000001 711.387 1960.699 596.632 1959.0990000000002 485.365 1957.176 351.603 2072.3289999999997 188.829 1979.309 92.68599999999998 1884.292-5.520999999999958 1711.183 120.245 1577.672 91.132 1458.975 65.24900000000002 1377.483-76.01599999999996 1256.504-64.92899999999997 1133.997-53.702 1044.315 54.358000000000004 963.818 147.38600000000002 883.364 240.36399999999998 808.244 345.05899999999997 795.886 467.39 783.737 587.649 823.676 711.9159999999999 897.086 807.941 963.864 895.29 1079.018 919.893 1178.162 967.429 1264.239 1008.7 1344.579 1065.525 1440 1068.25" fill="#c6e3fc"></path></g><defs><mask id="SvgjsMask1007"><rect width="1440" height="560" fill="#ffffff"></rect></mask></defs></svg>