<svg xmlns="http://www.w3.org/2000/svg" version="1.1" xmlns:xlink="http://www.w3.org/1999/xlink" xmlns:svgjs="http://svgjs.com/svgjs" width="1440" height="560" preserveAspectRatio="none" viewBox="0 0 1440 560"><g mask="url(&quot;#SvgjsMask1005&quot;)" fill="none"><rect width="1440" height="560" x="0" y="0" fill="rgba(61, 61, 61, 1)"></rect><path d="M0,699.056C134.158,709.479,276.382,677.468,380.971,592.803C481.785,511.194,518.51,377.415,552.097,252.134C581.435,142.701,590.144,28.889,561.542,-80.738C534.883,-182.918,460.754,-259.781,396.644,-343.694C328.042,-433.486,280.086,-553.119,173.024,-589.265C65.371,-625.611,-47.568,-565.154,-155.671,-530.168C-260.878,-496.12,-370.428,-466.991,-448.073,-388.257C-528.401,-306.802,-575.332,-198.267,-594.247,-85.44C-613.452,29.115,-598.961,145.983,-555.708,253.783C-511.025,365.148,-438.378,461.387,-344.736,536.42C-243.532,617.512,-129.295,689.011,0,699.056" fill="#313131"></path><path d="M1440 922.139C1507.231 913.556 1562.074 873.4069999999999 1624.594 847.2339999999999 1702.839 814.4780000000001 1801.827 816.038 1853.722 748.94 1907.527 679.372 1916.216 580.164 1897.6390000000001 494.201 1879.5729999999999 410.606 1812.549 350.26599999999996 1754.076 287.852 1697.758 227.738 1642.296 163.32 1563.915 137.985 1484.5 112.31599999999997 1396.653 117.137 1318.777 147.152 1244.162 175.91000000000003 1186.039 234.851 1141.056 300.964 1099.509 362.027 1086.097 434.524 1073.71 507.335 1061.01 581.989 1041.192 659.056 1068.095 729.843 1095.733 802.563 1153.3029999999999 862.851 1222.407 898.582 1288.551 932.7819999999999 1366.137 931.569 1440 922.139" fill="#494949"></path></g><defs><mask id="SvgjsMask1005"><rect width="1440" height="560" fill="#ffffff"></rect></mask></defs></svg>